<svg xmlns="http://www.w3.org/2000/svg" width="128" height="128" viewBox="0 0 128 128">
  <defs>
    <linearGradient id="bg" x1="0" y1="0" x2="1" y2="1">
      <stop offset="0%" stop-color="#f97316"/>
      <stop offset="100%" stop-color="#ea580c"/>
    </linearGradient>
    <filter id="glow">
      <feGaussianBlur stdDeviation="2" result="blur"/>
      <feMerge><feMergeNode in="blur"/><feMergeNode in="SourceGraphic"/></feMerge>
    </filter>
  </defs>
  <rect width="128" height="128" rx="28" fill="url(#bg)"/>
  <!-- Shadow under B -->
  <path d="M38 28h30c12 0 22 4 28 11s8 16 4 25c-2 5-6 9-11 12 8 3 14 8 17 15s4 16 1 24c-4 10-12 17-26 17H38V28zm18 40h14c5 0 9-1 12-4s4-7 4-11-1-8-4-10-7-4-12-4H56V68zm0 40h18c6 0 10-2 13-5s4-8 4-13-2-9-5-12-8-4-13-4H56v34z" fill="rgba(0,0,0,0.15)" transform="translate(2,2)"/>
  <!-- B letter -->
  <path d="M38 28h30c12 0 22 4 28 11s8 16 4 25c-2 5-6 9-11 12 8 3 14 8 17 15s4 16 1 24c-4 10-12 17-26 17H38V28zm18 40h14c5 0 9-1 12-4s4-7 4-11-1-8-4-10-7-4-12-4H56V68zm0 40h18c6 0 10-2 13-5s4-8 4-13-2-9-5-12-8-4-13-4H56v34z" fill="white"/>
  <!-- Lightning bolt -->
  <path d="M82 14l-10 28h18L66 116l10-36H58l14-44h-8L82 14z" fill="#fbbf24" filter="url(#glow)" opacity="0.85"/>
</svg>