<?xml version="1.0" encoding="UTF-8"?>
<svg width="170px" height="170px" viewBox="0 0 170 170" version="1.1" xmlns="http://www.w3.org/2000/svg">
  <g fill="#FFFFFF">
    <path d="M150,85 C150,120.898 120.898,150 85,150 C49.102,150 20,120.898 20,85 C20,49.102 49.102,20 85,20 C120.898,20 150,49.102 150,85" />
    <path d="M105.551,63.011 C99.376,63.011 96.333,66.76 91.053,66.76 C85.657,66.76 81.77,63.034 76.449,63.034 C69.557,63.034 62.31,67.85 62.31,77.413 C62.31,91.967 79.939,113.113 87.927,113.113 C92.224,113.113 93.62,110.39 98.866,110.39 C104.016,110.39 105.55,113.113 109.889,113.113 C114.228,113.113 117.16,109.481 120.09,104.806 C123.431,99.401 124.828,94.136 124.971,93.846 C124.685,93.743 110.699,88.634 110.699,73.587 C110.699,60.667 121.247,55.826 121.96,55.28 C117.335,48.291 110.175,47.6 107.234,47.6 C100.773,47.6 95.4,52.147 91.053,52.147 C87.246,52.147 82.48,47.6 76.449,47.6 C65.26,47.6 55,55.835 55,72.05 C55,82.186 58.927,92.842 64.058,100.399 C68.57,107.08 72.505,113.113 79.08,113.113 C85.267,113.113 87.246,110.39 93.62,110.39 C99.891,110.39 101.87,113.113 107.963,113.113 C114.057,113.113 118.035,107.852 122.5,101.243 C125.982,96.037 128.5,89.655 128.5,83.8 C128.5,83.138 128.466,82.48 128.398,81.828 C120.09,78.863 105.551,76.15 105.551,63.011" fill="#121212" />
  </g>
</svg>