<?xml version="1.0" encoding="UTF-8"?>
<svg width="170px" height="170px" viewBox="0 0 170 170" version="1.1" xmlns="http://www.w3.org/2000/svg">
  <g fill="#FFFFFF">
    <path d="M85,15.3 C107.7,15.3 110.4,15.4 119.5,15.8 C128.1,16.2 132.8,17.6 136,18.7 C140.1,20.2 143.1,22 146.2,25.1 C149.3,28.2 151.1,31.2 152.6,35.3 C153.7,38.5 155.1,43.2 155.5,51.8 C155.9,60.9 156,63.6 156,86.3 C156,109 155.9,111.7 155.5,120.8 C155.1,129.4 153.7,134.1 152.6,137.3 C151.1,141.4 149.3,144.4 146.2,147.5 C143.1,150.6 140.1,152.4 136,153.9 C132.8,155 128.1,156.4 119.5,156.8 C110.4,157.2 107.7,157.3 85,157.3 C62.3,157.3 59.6,157.2 50.5,156.8 C41.9,156.4 37.2,155 34,153.9 C29.9,152.4 26.9,150.6 23.8,147.5 C20.7,144.4 18.9,141.4 17.4,137.3 C16.3,134.1 14.9,129.4 14.5,120.8 C14.1,111.7 14,109 14,86.3 C14,63.6 14.1,60.9 14.5,51.8 C14.9,43.2 16.3,38.5 17.4,35.3 C18.9,31.2 20.7,28.2 23.8,25.1 C26.9,22 29.9,20.2 34,18.7 C37.2,17.6 41.9,16.2 50.5,15.8 C59.6,15.4 62.3,15.3 85,15.3 M85,0 C61.9,0 59,0.1 49.8,0.5 C40.6,0.9 34.5,2.4 29.2,4.5 C23.7,6.7 19,9.6 14.3,14.3 C9.6,19 6.7,23.7 4.5,29.2 C2.4,34.5 0.9,40.6 0.5,49.8 C0.1,59 0,61.9 0,85 C0,108.1 0.1,111 0.5,120.2 C0.9,129.4 2.4,135.5 4.5,140.8 C6.7,146.3 9.6,151 14.3,155.7 C19,160.4 23.7,163.3 29.2,165.5 C34.5,167.6 40.6,169.1 49.8,169.5 C59,169.9 61.9,170 85,170 C108.1,170 111,169.9 120.2,169.5 C129.4,169.1 135.5,167.6 140.8,165.5 C146.3,163.3 151,160.4 155.7,155.7 C160.4,151 163.3,146.3 165.5,140.8 C167.6,135.5 169.1,129.4 169.5,120.2 C169.9,111 170,108.1 170,85 C170,61.9 169.9,59 169.5,49.8 C169.1,40.6 167.6,34.5 165.5,29.2 C163.3,23.7 160.4,19 155.7,14.3 C151,9.6 146.3,6.7 140.8,4.5 C135.5,2.4 129.4,0.9 120.2,0.5 C111,0.1 108.1,0 85,0"></path>
    <path d="M85,41.4 C61,41.4 41.4,61 41.4,85 C41.4,109 61,128.6 85,128.6 C109,128.6 128.6,109 128.6,85 C128.6,61 109,41.4 85,41.4 Z M85,113.3 C69.6,113.3 56.7,100.4 56.7,85 C56.7,69.6 69.6,56.7 85,56.7 C100.4,56.7 113.3,69.6 113.3,85 C113.3,100.4 100.4,113.3 85,113.3 Z"></path>
    <path d="M130.6,48.2 C136.2,48.2 140.7,43.6 140.7,38 C140.7,32.4 136.2,27.9 130.6,27.9 C124.9,27.9 120.4,32.4 120.4,38 C120.4,43.6 124.9,48.2 130.6,48.2"></path>
  </g>
</svg>