<?xml version="1.0" encoding="UTF-8"?>
<svg width="170px" height="170px" viewBox="0 0 170 170" version="1.1" xmlns="http://www.w3.org/2000/svg">
  <g fill="#FFFFFF">
    <path d="M141.721,63.929 C129.41,63.929 118.904,53.423 118.904,41.113 L93.186,41.113 L93.186,112.367 C93.186,124.037 83.69,133.533 72.020,133.533 C60.350,133.533 50.854,124.037 50.854,112.367 C50.854,100.697 60.350,91.201 72.020,91.201 C73.381,91.201 74.706,91.345 75.987,91.615 L75.987,65.445 C74.688,65.283 73.367,65.199 72.020,65.199 C45.950,65.199 24.852,86.297 24.852,112.367 C24.852,138.437 45.950,159.535 72.020,159.535 C98.090,159.535 119.188,138.437 119.188,112.367 L119.188,85.999 C126.188,90.723 134.578,93.528 143.594,93.528 L143.594,67.576 C142.969,67.675 142.339,67.726 141.721,67.726 L141.721,63.929 Z M141.721,11.466 C129.41,11.466 118.904,21.972 118.904,34.282 L93.186,34.282 L93.186,105.536 C93.186,117.206 83.69,126.702 72.020,126.702 C60.350,126.702 50.854,117.206 50.854,105.536 C50.854,93.866 60.350,84.370 72.020,84.370 C73.381,84.370 74.706,84.514 75.987,84.784 L75.987,58.614 C74.688,58.452 73.367,58.368 72.020,58.368 C45.950,58.368 24.852,79.466 24.852,105.536 C24.852,131.606 45.950,152.704 72.020,152.704 C98.090,152.704 119.188,131.606 119.188,105.536 L119.188,79.168 C126.188,83.892 134.578,86.697 143.594,86.697 L143.594,60.745 C142.969,60.844 142.339,60.895 141.721,60.895 L141.721,11.466 Z"></path>
  </g>
</svg>