<?xml version="1.0" encoding="UTF-8"?>
<svg width="170px" height="170px" viewBox="0 0 170 170" version="1.1" xmlns="http://www.w3.org/2000/svg">
  <g fill="#FFFFFF">
    <path d="M166.85,51.25 C164.9,44.45 159.5,39.05 152.65,37.15 C139.1,33.5 85,33.5 85,33.5 C85,33.5 30.9,33.5 17.35,37.15 C10.5,39.05 5.1,44.45 3.15,51.25 C-0.5,64.8 -0.5,93 -0.5,93 C-0.5,93 -0.5,121.2 3.15,134.75 C5.1,141.55 10.5,146.95 17.35,148.85 C30.9,152.5 85,152.5 85,152.5 C85,152.5 139.1,152.5 152.65,148.85 C159.5,146.95 164.9,141.55 166.85,134.75 C170.5,121.2 170.5,93 170.5,93 C170.5,93 170.5,64.8 166.85,51.25 Z M68.3,119.85 L68.3,66.15 L112.2,93 L68.3,119.85 Z"></path>
  </g>
</svg>